<?xml version="1.0" encoding="UTF-8" standalone="no"?>
<!-- Uploaded to: SVG Repo, www.svgrepo.com, Generator: SVG Repo Mixer Tools -->

<svg
   width="799.98627"
   height="479.95001"
   viewBox="0 0 15.999725 9.5990002"
   fill="none"
   version="1.1"
   id="svg3"
   sodipodi:docname="aws.svg"
   inkscape:version="1.3.2 (091e20e, 2023-11-25)"
   xmlns:inkscape="http://www.inkscape.org/namespaces/inkscape"
   xmlns:sodipodi="http://sodipodi.sourceforge.net/DTD/sodipodi-0.dtd"
   xmlns="http://www.w3.org/2000/svg"
   xmlns:svg="http://www.w3.org/2000/svg">
  <defs
     id="defs3" />
  <sodipodi:namedview
     id="namedview3"
     pagecolor="#ffffff"
     bordercolor="#000000"
     borderopacity="0.25"
     inkscape:showpageshadow="2"
     inkscape:pageopacity="0.0"
     inkscape:pagecheckerboard="0"
     inkscape:deskcolor="#d1d1d1"
     inkscape:zoom="0.295"
     inkscape:cx="366.10169"
     inkscape:cy="-20.338983"
     inkscape:window-width="1712"
     inkscape:window-height="1069"
     inkscape:window-x="0"
     inkscape:window-y="38"
     inkscape:window-maximized="0"
     inkscape:current-layer="svg3" />
  <path
     fill="#252F3E"
     d="m 4.5099303,3.487 c 0,0.197 0.02,0.357 0.058,0.475 0.042,0.117 0.096,0.245 0.17,0.384 a 0.233,0.233 0 0 1 0.037,0.123 c 0,0.053 -0.032,0.107 -0.1,0.16 l -0.336,0.224 a 0.255,0.255 0 0 1 -0.138,0.048 c -0.054,0 -0.107,-0.026 -0.16,-0.074 a 1.652,1.652 0 0 1 -0.192,-0.251 4.137,4.137 0 0 1 -0.165,-0.315 c -0.415,0.491 -0.936,0.737 -1.564,0.737 -0.447,0 -0.804,-0.129 -1.064,-0.385 C 0.79493027,4.357 0.66193027,4.015 0.66193027,3.588 c 0,-0.454 0.16,-0.822 0.48400003,-1.1 0.325,-0.278 0.756,-0.416 1.304,-0.416 0.18,0 0.367,0.016 0.564,0.042 0.197,0.027 0.4,0.07 0.612,0.118 v -0.39 c 0,-0.406 -0.085,-0.689 -0.25,-0.854 -0.17,-0.166 -0.458,-0.246 -0.868,-0.246 -0.186,0 -0.377,0.022 -0.574,0.07 a 4.23,4.23 0 0 0 -0.575,0.181 1.525,1.525 0 0 1 -0.186,0.07 0.326,0.326 0 0 1 -0.085,0.016 c -0.075,0 -0.11200003,-0.054 -0.11200003,-0.166 V 0.651 c 0,-0.085 0.01,-0.15 0.037,-0.186 a 0.399,0.399 0 0 1 0.15,-0.113 c 0.185,-0.096 0.409,-0.176 0.67,-0.24 0.26,-0.07 0.537,-0.101 0.83,-0.101 0.633,0 1.096,0.144 1.394,0.432 0.293,0.288 0.442,0.726 0.442,1.314 v 1.73 h 0.01 z m -2.161,0.811 c 0.175,0 0.356,-0.032 0.548,-0.096 0.191,-0.064 0.362,-0.182 0.505,-0.342 a 0.848,0.848 0 0 0 0.181,-0.341 c 0.032,-0.129 0.054,-0.283 0.054,-0.465 V 2.83 a 4.43,4.43 0 0 0 -0.49,-0.09 3.996,3.996 0 0 0 -0.5,-0.033 c -0.357,0 -0.618,0.07 -0.793,0.214 -0.176,0.144 -0.26,0.347 -0.26,0.614 0,0.25 0.063,0.437 0.196,0.566 0.128,0.133 0.314,0.197 0.559,0.197 z m 4.273,0.577 c -0.096,0 -0.16,-0.016 -0.202,-0.054 -0.043,-0.032 -0.08,-0.106 -0.112,-0.208 l -1.25,-4.127 a 0.938,0.938 0 0 1 -0.049,-0.214 c 0,-0.085 0.043,-0.133 0.128,-0.133 h 0.522 c 0.1,0 0.17,0.016 0.207,0.053 0.043,0.032 0.075,0.107 0.107,0.208 l 0.894,3.535 0.83,-3.535 c 0.026,-0.106 0.058,-0.176 0.1,-0.208 a 0.365,0.365 0 0 1 0.214,-0.053 h 0.425 c 0.102,0 0.17,0.016 0.213,0.053 0.043,0.032 0.08,0.107 0.101,0.208 l 0.841,3.578 L 10.51093,0.4 a 0.458,0.458 0 0 1 0.107,-0.208 0.346,0.346 0 0 1 0.208,-0.053 h 0.495 c 0.085,0 0.133,0.043 0.133,0.133 0,0.027 -0.006,0.054 -0.01,0.086 a 0.76,0.76 0 0 1 -0.038,0.133 l -1.283,4.127 c -0.032,0.107 -0.069,0.177 -0.111,0.209 A 0.34,0.34 0 0 1 9.8089303,4.88 h -0.457 c -0.101,0 -0.17,-0.016 -0.213,-0.053 -0.043,-0.038 -0.08,-0.107 -0.101,-0.214 l -0.825,-3.443 -0.82,3.439 c -0.026,0.107 -0.058,0.176 -0.1,0.213 -0.043,0.038 -0.118,0.054 -0.213,0.054 h -0.458 z M 13.45993,5.019 a 3.51,3.51 0 0 1 -0.82,-0.096 c -0.266,-0.064 -0.473,-0.134 -0.612,-0.214 -0.085,-0.048 -0.143,-0.101 -0.165,-0.15 A 0.378,0.378 0 0 1 11.83193,4.41 V 4.138 c 0,-0.112 0.042,-0.166 0.122,-0.166 a 0.3,0.3 0 0 1 0.096,0.016 c 0.032,0.011 0.08,0.032 0.133,0.054 0.18,0.08 0.378,0.144 0.585,0.187 0.213,0.042 0.42,0.064 0.633,0.064 0.336,0 0.596,-0.059 0.777,-0.176 a 0.575,0.575 0 0 0 0.277,-0.508 0.52,0.52 0 0 0 -0.144,-0.373 c -0.095,-0.102 -0.276,-0.193 -0.537,-0.278 l -0.772,-0.24 c -0.388,-0.123 -0.676,-0.305 -0.851,-0.545 a 1.275,1.275 0 0 1 -0.266,-0.774 c 0,-0.224 0.048,-0.422 0.143,-0.593 0.096,-0.17 0.224,-0.32 0.384,-0.438 0.16,-0.122 0.34,-0.213 0.553,-0.277 0.213,-0.064 0.436,-0.091 0.67,-0.091 0.118,0 0.24,0.005 0.357,0.021 0.122,0.016 0.234,0.038 0.346,0.06 0.106,0.026 0.208,0.052 0.303,0.085 0.096,0.032 0.17,0.064 0.224,0.096 a 0.46,0.46 0 0 1 0.16,0.133 0.289,0.289 0 0 1 0.047,0.176 v 0.251 c 0,0.112 -0.042,0.171 -0.122,0.171 a 0.552,0.552 0 0 1 -0.202,-0.064 2.427,2.427 0 0 0 -1.022,-0.208 c -0.303,0 -0.543,0.048 -0.708,0.15 -0.165,0.1 -0.25,0.256 -0.25,0.475 0,0.149 0.053,0.277 0.16,0.379 0.106,0.101 0.303,0.202 0.585,0.293 l 0.756,0.24 c 0.383,0.123 0.66,0.294 0.825,0.513 0.165,0.219 0.244,0.47 0.244,0.748 0,0.23 -0.047,0.437 -0.138,0.619 a 1.436,1.436 0 0 1 -0.388,0.47 c -0.165,0.133 -0.362,0.23 -0.591,0.299 -0.24,0.075 -0.49,0.112 -0.761,0.112 z"
     id="path1"
     style="fill:#f1eddd;fill-opacity:1" />
  <g
     fill="#ff9900"
     fill-rule="evenodd"
     clip-rule="evenodd"
     id="g3"
     transform="translate(-6.9726688e-5,-4.2)">
    <path
       d="m 14.465,11.813 c -1.75,1.297 -4.294,1.986 -6.481,1.986 -3.065,0 -5.827,-1.137 -7.913,-3.027 -0.165,-0.15 -0.016,-0.353 0.18,-0.235 2.257,1.313 5.04,2.109 7.92,2.109 1.941,0 4.075,-0.406 6.039,-1.239 0.293,-0.133 0.543,0.192 0.255,0.406 z"
       id="path2" />
    <path
       d="m 15.194,10.98 c -0.223,-0.287 -1.479,-0.138 -2.048,-0.069 -0.17,0.022 -0.197,-0.128 -0.043,-0.24 1,-0.705 2.645,-0.502 2.836,-0.267 0.192,0.24 -0.053,1.89 -0.99,2.68 -0.143,0.123 -0.281,0.06 -0.218,-0.1 0.213,-0.53 0.687,-1.72 0.463,-2.003 z"
       id="path3" />
  </g>
</svg>
