<?xml version="1.0" encoding="UTF-8"?>
<svg width="68.906mm" height="40.18mm" version="1.1" viewBox="0 0 68.906 40.18" xml:space="preserve" xmlns="http://www.w3.org/2000/svg"><defs><clipPath id="a"><rect x="8.5968" y="8.5968" width="68.906" height="40.18" rx="0" ry="0" fill="none" stroke="#000" stroke-linecap="round" stroke-opacity=".5" stroke-width=".1" style="paint-order:fill markers stroke"/></clipPath></defs><g transform="translate(-15.19 -16.229)"><g transform="translate(46.988 386.29)"><rect x="-26.045" y="-364.31" width="57.4" height="28.7" rx="14.35" ry="14.35" fill="#f1edde"/></g><path d="m67.64 25.828c-0.3009 0.0031-0.60809 0.02539-0.92036 0.06356 1.1937 0.65152 3.8618 2.3029 5.4482 4.8044 2.0872 3.291 1.957 5.1351 1.957 5.1351s0.79056-4.3545-1.5214-7.5701c-1.2078-1.6798-2.9487-2.4537-4.9635-2.4329zm6.4849 10.003s-0.45949-2.5691-2.9078-5.239c-1.7344-1.8913-4.1707-3.082-5.4477-3.6174 0.68142 2.0917 2.2507 3.7745 4.0592 4.8307 2.697 1.5751 4.2964 4.0256 4.2964 4.0256z" fill="#6c8038" style="paint-order:fill markers stroke"/><g transform="matrix(1.0309 0 0 1.0309 39.17 413.15)" fill="#ee8f12"><path d="m-3.7606-376.66a11.136 11.136 0 0 0-9.6444 5.5681 11.136 11.136 0 0 0 0 11.136 11.136 11.136 0 0 0 9.6444 5.5681v-2.6593c-0.32487 0.27573-0.71903 0.4649-1.1824 0.51573-1.8639-0.0145-3.609-0.99357-4.9806-2.1973-0.79866-0.55518-1.2937-1.5515-1.1948-2.5037-0.27217-0.0807-0.5349-0.21162-0.78186-0.40463-1.3309-1.3234-1.2591-3.3909-1.1307-5.1304 0.07523-1.2216 0.67313-2.7086 1.9198-3.0711-0.0695-0.6068 0.07155-1.2356 0.45785-1.7399 1.3965-1.5671 3.3614-2.7803 5.4896-2.9394 0.50399 0.0141 1.0098 0.19252 1.403 0.51108zm0 10.424c-0.22402 0.19226-0.4809 0.34383-0.77101 0.43667 0.014148 0.0966 0.023221 0.1958 0.026355 0.29714-0.00658 0.0906-0.018194 0.17867-0.033073 0.26562 0.28201 0.0855 0.5478 0.22325 0.77773 0.40617z" style="paint-order:fill markers stroke"/><path transform="matrix(.21853 0 0 .21853 -37.037 -384.57)" d="m141.65 87.174c0 4.9953-17.304 14.986-21.63 12.488-4.3261-2.4977-4.3261-22.479 0-24.977 4.3261-2.4977 21.63 7.493 21.63 12.488z" style="paint-order:fill markers stroke"/><path transform="matrix(.10926 .18925 -.18925 .10926 -3.8218 -403.71)" d="m141.65 87.174c0 4.9953-17.304 14.986-21.63 12.488-4.3261-2.4977-4.3261-22.479 0-24.977 4.3261-2.4977 21.63 7.493 21.63 12.488z" style="paint-order:fill markers stroke"/><path transform="matrix(.10926 -.18925 -.18925 -.10926 -3.8151 -327.33)" d="m141.65 87.174c0 4.9953-17.304 14.986-21.63 12.488-4.3261-2.4977-4.3261-22.479 0-24.977 4.3261-2.4977 21.63 7.493 21.63 12.488z" style="paint-order:fill markers stroke"/></g><text transform="scale(.99772 1.0023)" x="53.049667" y="47.307323" fill="#131313" font-family="'Courier new'" font-size="50.565px" letter-spacing="0px" stroke="#131313" stroke-linecap="square" stroke-width=".7873" text-align="center" text-anchor="middle" style="paint-order:stroke fill markers" xml:space="preserve"><tspan x="53.049667" y="47.307323" fill="#131313" font-size="50.565px" stroke="#131313" stroke-width=".7873" style="paint-order:stroke fill markers">m</tspan></text></g><g transform="translate(-15.19 -16.229)" display="none"><g transform="translate(6.5932 7.6324)" clip-path="url(#a)" stroke="#000" stroke-opacity=".5"><g fill="none" stroke-width=".052917"><path d="m28.7 0v57.4"/><path d="m57.4 0v57.4"/></g><path d="m0 28.7h86.1" fill="none" stroke="#000" stroke-opacity=".5" stroke-width=".052917"/><g fill="none" stroke-width=".026458"><path d="m2.87 0v57.4"/><path d="m5.74 0v57.4"/><path d="m8.61 0v57.4"/><path d="m11.48 0v57.4"/><path d="m14.35 0v57.4"/><path d="m17.22 0v57.4"/><path d="m20.09 0v57.4"/><path d="m22.96 0v57.4"/><path d="m25.83 0v57.4"/><path d="m31.57 0v57.4"/><path d="m34.44 0v57.4"/><path d="m37.31 0v57.4"/><path d="m40.18 0v57.4"/><path d="m43.05 0v57.4"/><path d="m45.92 0v57.4"/><path d="m48.79 0v57.4"/><path d="m51.66 0v57.4"/><path d="m54.53 0v57.4"/><path d="m60.27 0v57.4"/><path d="m63.14 0v57.4"/><path d="m66.01 0v57.4"/><path d="m68.88 0v57.4"/><path d="m71.75 0v57.4"/><path d="m74.62 0v57.4"/><path d="m77.49 0v57.4"/><path d="m80.36 0v57.4"/><path d="m83.23 0v57.4"/></g><g fill="none" stroke-width=".026458"><path d="m0 2.87h86.1"/><path d="m0 5.74h86.1"/><path d="m0 8.61h86.1"/><path d="m0 11.48h86.1"/><path d="m0 14.35h86.1"/><path d="m0 17.22h86.1"/><path d="m0 20.09h86.1"/><path d="m0 22.96h86.1"/><path d="m0 25.83h86.1"/><path d="m0 31.57h86.1"/><path d="m0 34.44h86.1"/><path d="m0 37.31h86.1"/><path d="m0 40.18h86.1"/><path d="m0 43.05h86.1"/><path d="m0 45.92h86.1"/><path d="m0 48.79h86.1"/><path d="m0 51.66h86.1"/><path d="m0 54.53h86.1"/></g><rect width="86.1" height="57.4" fill="none" stroke-width=".079375"/></g></g></svg>
