<?xml version="1.0" encoding="UTF-8" standalone="no"?>
<!-- Created with Inkscape (http://www.inkscape.org/) -->

<svg
   width="68.906464mm"
   height="40.18mm"
   viewBox="0 0 68.906462 40.18"
   version="1.1"
   id="svg1"
   xml:space="preserve"
   xmlns="http://www.w3.org/2000/svg"
   xmlns:svg="http://www.w3.org/2000/svg"><defs
     id="defs1"><rect
       x="117.3705"
       y="115.54372"
       width="94.99247"
       height="23.748116"
       id="rect2" /><rect
       x="117.3705"
       y="115.54372"
       width="94.99247"
       height="23.748116"
       id="rect2-3" /><rect
       x="117.3705"
       y="115.54372"
       width="94.99247"
       height="23.748116"
       id="rect2-5" /><rect
       x="117.3705"
       y="115.54372"
       width="94.99247"
       height="23.748116"
       id="rect2-5-5" /><clipPath
       clipPathUnits="userSpaceOnUse"
       id="clipPath17"><rect
         style="fill:#f1edde;fill-opacity:1;stroke:#000000;stroke-width:0.0974275;stroke-linecap:butt;stroke-linejoin:miter;stroke-dasharray:none;stroke-dashoffset:0;stroke-opacity:1;paint-order:normal"
         id="rect17"
         width="350.67896"
         height="352.36292"
         x="-584.45435"
         y="-297.37811"
         rx="3.9057145"
         ry="3.6736219" /></clipPath><clipPath
       clipPathUnits="userSpaceOnUse"
       id="clipPath18"><rect
         style="fill:#f1edde;fill-opacity:1;stroke:none;stroke-width:6.44327;stroke-linecap:round;stroke-linejoin:round;stroke-dasharray:none;stroke-dashoffset:0;stroke-opacity:1;paint-order:normal"
         id="rect19"
         width="349.79263"
         height="351.48535"
         x="-583.7915"
         y="-296.96594"
         ry="2.8194475" /></clipPath><clipPath
       clipPathUnits="userSpaceOnUse"
       id="clipPath2809"><rect
         style="fill:none;fill-opacity:1;stroke:#000000;stroke-width:0.1;stroke-linecap:round;stroke-linejoin:miter;stroke-dasharray:none;stroke-opacity:0.5;paint-order:fill markers stroke"
         id="rect2810"
         width="68.906464"
         height="40.18"
         x="8.5967693"
         y="8.5967703"
         rx="0"
         ry="0" /></clipPath></defs><g
     id="layer6"
     transform="translate(-15.18996,-16.229183)"><g
       id="layer1"
       transform="translate(46.988182,386.29283)"><rect
         style="fill:#131313;fill-opacity:1;stroke:none;stroke-width:0.114048;stroke-linecap:round;stroke-linejoin:round;stroke-dasharray:none;stroke-dashoffset:0;stroke-opacity:1"
         id="rect1-4-0-2-6-0"
         width="57.400002"
         height="28.700018"
         x="-26.044992"
         y="-364.31042"
         ry="14.350009"
         rx="14.350009" /></g><g
       id="layer5"><path
         id="path2810"
         style="fill:#6c8038;fill-opacity:1;stroke:none;stroke-width:0.1;stroke-linecap:round;stroke-linejoin:miter;stroke-dasharray:none;stroke-opacity:1;paint-order:fill markers stroke"
         d="m 67.639669,25.828362 c -0.300905,0.0031 -0.608086,0.02539 -0.920358,0.06356 1.193653,0.651518 3.861785,2.302931 5.448247,4.804358 2.087224,3.290995 1.956986,5.135087 1.956986,5.135087 0,0 0.790563,-4.354517 -1.521354,-7.570081 -1.207751,-1.679819 -2.94867,-2.453731 -4.963521,-2.432926 z m 6.484875,10.003007 c 0,0 -0.459487,-2.569105 -2.907833,-5.238957 -1.734372,-1.891283 -4.170748,-3.081985 -5.447729,-3.61735 0.681424,2.091717 2.250664,3.774472 4.059183,4.830713 2.697006,1.575148 4.296379,4.025594 4.296379,4.025594 z" /></g><g
       id="layer4"><g
         id="g59"
         transform="matrix(1.0308685,0,0,1.0308894,39.16989,413.14516)"><path
           id="path2-9-7-9-8"
           style="fill:#ee8f12;fill-opacity:1;stroke:none;stroke-width:2.874;stroke-linecap:butt;stroke-linejoin:round;stroke-dasharray:none;stroke-dashoffset:0;stroke-opacity:1;paint-order:fill markers stroke"
           d="m -3.7606156,-376.658 a 11.136,11.136 0 0 0 -9.6443724,5.56814 11.136,11.136 0 0 0 0,11.13575 11.136,11.136 0 0 0 9.6443724,5.56814 v -2.65927 c -0.3248742,0.27573 -0.719029,0.4649 -1.1823568,0.51573 -1.8638529,-0.0145 -3.6089705,-0.99357 -4.9805745,-2.19728 -0.7986621,-0.55518 -1.2937411,-1.55148 -1.1947591,-2.50372 -0.272173,-0.0807 -0.534896,-0.21162 -0.781865,-0.40463 -1.330894,-1.32341 -1.259132,-3.39088 -1.13068,-5.13044 0.07523,-1.22157 0.673133,-2.70857 1.91978,-3.07113 -0.0695,-0.6068 0.07155,-1.23564 0.457853,-1.73994 1.3964781,-1.56713 3.3614109,-2.7803 5.4895873,-2.93936 0.5039903,0.0141 1.0098128,0.19252 1.4030151,0.51108 z m 0,10.42417 c -0.2240156,0.19226 -0.4809,0.34383 -0.7710124,0.43667 0.014148,0.0966 0.023221,0.1958 0.026355,0.29714 -0.00658,0.0906 -0.018194,0.17867 -0.033073,0.26562 0.2820071,0.0855 0.547802,0.22325 0.7777303,0.40617 z" /><path
           style="fill:#ee8f12;fill-opacity:1;stroke:none;stroke-width:0.1;stroke-linecap:round;stroke-linejoin:miter;stroke-dasharray:none;stroke-opacity:1;paint-order:fill markers stroke"
           id="path57"
           d="m 141.64778,87.174454 c 0,4.995305 -17.30424,14.985916 -21.6303,12.488262 -4.32607,-2.497652 -4.32607,-22.478872 0,-24.976525 4.32606,-2.497652 21.6303,7.492958 21.6303,12.488263 z"
           transform="matrix(0.21852972,0,0,0.21852972,-37.036604,-384.57212)" /><path
           style="fill:#ee8f12;fill-opacity:1;stroke:none;stroke-width:0.1;stroke-linecap:round;stroke-linejoin:miter;stroke-dasharray:none;stroke-opacity:1;paint-order:fill markers stroke"
           id="path57-3"
           d="m 141.64778,87.174454 c 0,4.995305 -17.30424,14.985916 -21.6303,12.488262 -4.32607,-2.497652 -4.32607,-22.478872 0,-24.976525 4.32606,-2.497652 21.6303,7.492958 21.6303,12.488263 z"
           transform="matrix(0.10926486,0.18925229,-0.18925229,0.10926486,-3.8218185,-403.71347)" /><path
           style="fill:#ee8f12;fill-opacity:1;stroke:none;stroke-width:0.1;stroke-linecap:round;stroke-linejoin:miter;stroke-dasharray:none;stroke-opacity:1;paint-order:fill markers stroke"
           id="path57-3-0"
           d="m 141.64778,87.174454 c 0,4.995305 -17.30424,14.985916 -21.6303,12.488262 -4.32607,-2.497652 -4.32607,-22.478872 0,-24.976525 4.32606,-2.497652 21.6303,7.492958 21.6303,12.488263 z"
           transform="matrix(0.10926486,-0.18925229,-0.18925229,-0.10926486,-3.815132,-327.32825)" /></g></g><g
       id="layer3"><text
         xml:space="preserve"
         style="font-style:normal;font-variant:normal;font-weight:normal;font-stretch:normal;font-size:50.565px;font-family:'Courier new';-inkscape-font-specification:'Courier new';text-align:center;letter-spacing:0px;text-anchor:middle;fill:#f1edde;fill-opacity:1;stroke:#131313;stroke-width:0.787302;stroke-linecap:square;stroke-linejoin:miter;stroke-dasharray:none;stroke-dashoffset:0;stroke-opacity:1;paint-order:stroke fill markers"
         x="53.049667"
         y="47.307323"
         id="text12-5"
         transform="scale(0.99772351,1.0022817)"><tspan
           id="tspan12-5"
           style="font-size:50.565px;fill:#f1edde;fill-opacity:1;stroke:#131313;stroke-width:0.787302;stroke-linejoin:miter;stroke-dasharray:none;stroke-opacity:1;paint-order:stroke fill markers"
           x="53.049667"
           y="47.307323">m</tspan></text></g></g><g
     id="layer2"
     transform="translate(-15.18996,-16.229183)"
     style="display:none"><g
       transform="translate(6.5931902,7.6324124)"
       id="g2809"
       style="stroke:#000000;stroke-opacity:0.5"
       clip-path="url(#clipPath2809)"><g
         id="g2762"
         style="stroke:#000000;stroke-opacity:0.5"><path
           style="fill:none;stroke:#000000;stroke-width:0.0529167;stroke-opacity:0.5"
           d="M 28.7,0 V 57.4"
           id="path2761" /><path
           style="fill:none;stroke:#000000;stroke-width:0.0529167;stroke-opacity:0.5"
           d="M 57.4,0 V 57.4"
           id="path2762" /></g><g
         id="g2763"
         style="stroke:#000000;stroke-opacity:0.5"><path
           style="fill:none;stroke:#000000;stroke-width:0.0529167;stroke-opacity:0.5"
           d="M 0,28.7 H 86.1"
           id="path2763" /></g><g
         id="g2790"
         style="stroke:#000000;stroke-opacity:0.5"><path
           style="fill:none;stroke:#000000;stroke-width:0.0264583;stroke-opacity:0.5"
           d="M 2.87,0 V 57.4"
           id="path2764" /><path
           style="fill:none;stroke:#000000;stroke-width:0.0264583;stroke-opacity:0.5"
           d="M 5.74,0 V 57.4"
           id="path2765" /><path
           style="fill:none;stroke:#000000;stroke-width:0.0264583;stroke-opacity:0.5"
           d="M 8.61,0 V 57.4"
           id="path2766" /><path
           style="fill:none;stroke:#000000;stroke-width:0.0264583;stroke-opacity:0.5"
           d="M 11.48,0 V 57.4"
           id="path2767" /><path
           style="fill:none;stroke:#000000;stroke-width:0.0264583;stroke-opacity:0.5"
           d="M 14.35,0 V 57.4"
           id="path2768" /><path
           style="fill:none;stroke:#000000;stroke-width:0.0264583;stroke-opacity:0.5"
           d="M 17.22,0 V 57.4"
           id="path2769" /><path
           style="fill:none;stroke:#000000;stroke-width:0.0264583;stroke-opacity:0.5"
           d="M 20.09,0 V 57.4"
           id="path2770" /><path
           style="fill:none;stroke:#000000;stroke-width:0.0264583;stroke-opacity:0.5"
           d="M 22.96,0 V 57.4"
           id="path2771" /><path
           style="fill:none;stroke:#000000;stroke-width:0.0264583;stroke-opacity:0.5"
           d="M 25.83,0 V 57.4"
           id="path2772" /><path
           style="fill:none;stroke:#000000;stroke-width:0.0264583;stroke-opacity:0.5"
           d="M 31.57,0 V 57.4"
           id="path2773" /><path
           style="fill:none;stroke:#000000;stroke-width:0.0264583;stroke-opacity:0.5"
           d="M 34.44,0 V 57.4"
           id="path2774" /><path
           style="fill:none;stroke:#000000;stroke-width:0.0264583;stroke-opacity:0.5"
           d="M 37.31,0 V 57.4"
           id="path2775" /><path
           style="fill:none;stroke:#000000;stroke-width:0.0264583;stroke-opacity:0.5"
           d="M 40.18,0 V 57.4"
           id="path2776" /><path
           style="fill:none;stroke:#000000;stroke-width:0.0264583;stroke-opacity:0.5"
           d="M 43.05,0 V 57.4"
           id="path2777" /><path
           style="fill:none;stroke:#000000;stroke-width:0.0264583;stroke-opacity:0.5"
           d="M 45.92,0 V 57.4"
           id="path2778" /><path
           style="fill:none;stroke:#000000;stroke-width:0.0264583;stroke-opacity:0.5"
           d="M 48.79,0 V 57.4"
           id="path2779" /><path
           style="fill:none;stroke:#000000;stroke-width:0.0264583;stroke-opacity:0.5"
           d="M 51.66,0 V 57.4"
           id="path2780" /><path
           style="fill:none;stroke:#000000;stroke-width:0.0264583;stroke-opacity:0.5"
           d="M 54.53,0 V 57.4"
           id="path2781" /><path
           style="fill:none;stroke:#000000;stroke-width:0.0264583;stroke-opacity:0.5"
           d="M 60.27,0 V 57.4"
           id="path2782" /><path
           style="fill:none;stroke:#000000;stroke-width:0.0264583;stroke-opacity:0.5"
           d="M 63.14,0 V 57.4"
           id="path2783" /><path
           style="fill:none;stroke:#000000;stroke-width:0.0264583;stroke-opacity:0.5"
           d="M 66.01,0 V 57.4"
           id="path2784" /><path
           style="fill:none;stroke:#000000;stroke-width:0.0264583;stroke-opacity:0.5"
           d="M 68.88,0 V 57.4"
           id="path2785" /><path
           style="fill:none;stroke:#000000;stroke-width:0.0264583;stroke-opacity:0.5"
           d="M 71.75,0 V 57.4"
           id="path2786" /><path
           style="fill:none;stroke:#000000;stroke-width:0.0264583;stroke-opacity:0.5"
           d="M 74.62,0 V 57.4"
           id="path2787" /><path
           style="fill:none;stroke:#000000;stroke-width:0.0264583;stroke-opacity:0.5"
           d="M 77.49,0 V 57.4"
           id="path2788" /><path
           style="fill:none;stroke:#000000;stroke-width:0.0264583;stroke-opacity:0.5"
           d="M 80.36,0 V 57.4"
           id="path2789" /><path
           style="fill:none;stroke:#000000;stroke-width:0.0264583;stroke-opacity:0.5"
           d="M 83.23,0 V 57.4"
           id="path2790" /></g><g
         id="g2808"
         style="stroke:#000000;stroke-opacity:0.5"><path
           style="fill:none;stroke:#000000;stroke-width:0.0264583;stroke-opacity:0.5"
           d="M 0,2.87 H 86.1"
           id="path2791" /><path
           style="fill:none;stroke:#000000;stroke-width:0.0264583;stroke-opacity:0.5"
           d="M 0,5.74 H 86.1"
           id="path2792" /><path
           style="fill:none;stroke:#000000;stroke-width:0.0264583;stroke-opacity:0.5"
           d="M 0,8.61 H 86.1"
           id="path2793" /><path
           style="fill:none;stroke:#000000;stroke-width:0.0264583;stroke-opacity:0.5"
           d="M 0,11.48 H 86.1"
           id="path2794" /><path
           style="fill:none;stroke:#000000;stroke-width:0.0264583;stroke-opacity:0.5"
           d="M 0,14.35 H 86.1"
           id="path2795" /><path
           style="fill:none;stroke:#000000;stroke-width:0.0264583;stroke-opacity:0.5"
           d="M 0,17.22 H 86.1"
           id="path2796" /><path
           style="fill:none;stroke:#000000;stroke-width:0.0264583;stroke-opacity:0.5"
           d="M 0,20.09 H 86.1"
           id="path2797" /><path
           style="fill:none;stroke:#000000;stroke-width:0.0264583;stroke-opacity:0.5"
           d="M 0,22.96 H 86.1"
           id="path2798" /><path
           style="fill:none;stroke:#000000;stroke-width:0.0264583;stroke-opacity:0.5"
           d="M 0,25.83 H 86.1"
           id="path2799" /><path
           style="fill:none;stroke:#000000;stroke-width:0.0264583;stroke-opacity:0.5"
           d="M 0,31.57 H 86.1"
           id="path2800" /><path
           style="fill:none;stroke:#000000;stroke-width:0.0264583;stroke-opacity:0.5"
           d="M 0,34.44 H 86.1"
           id="path2801" /><path
           style="fill:none;stroke:#000000;stroke-width:0.0264583;stroke-opacity:0.5"
           d="M 0,37.31 H 86.1"
           id="path2802" /><path
           style="fill:none;stroke:#000000;stroke-width:0.0264583;stroke-opacity:0.5"
           d="M 0,40.18 H 86.1"
           id="path2803" /><path
           style="fill:none;stroke:#000000;stroke-width:0.0264583;stroke-opacity:0.5"
           d="M 0,43.05 H 86.1"
           id="path2804" /><path
           style="fill:none;stroke:#000000;stroke-width:0.0264583;stroke-opacity:0.5"
           d="M 0,45.92 H 86.1"
           id="path2805" /><path
           style="fill:none;stroke:#000000;stroke-width:0.0264583;stroke-opacity:0.5"
           d="M 0,48.79 H 86.1"
           id="path2806" /><path
           style="fill:none;stroke:#000000;stroke-width:0.0264583;stroke-opacity:0.5"
           d="M 0,51.66 H 86.1"
           id="path2807" /><path
           style="fill:none;stroke:#000000;stroke-width:0.0264583;stroke-opacity:0.5"
           d="M 0,54.53 H 86.1"
           id="path2808" /></g><rect
         x="0"
         y="0"
         width="86.099998"
         height="57.400002"
         style="fill:none;stroke:#000000;stroke-width:0.079375;stroke-opacity:0.5"
         id="rect2808" /></g></g></svg>
