<svg id="visual" viewBox="0 0 900 675" width="900" height="675" xmlns="http://www.w3.org/2000/svg" xmlns:xlink="http://www.w3.org/1999/xlink" version="1.1"><rect width="900" height="675" fill="#131313"></rect><g><g transform="translate(819 418)"><path d="M0 -162.1L140.4 -81.1L140.4 81.1L0 162.1L-140.4 81.1L-140.4 -81.1Z" fill="none" stroke="#f1911d" stroke-width="2"></path></g><g transform="translate(708 97)"><path d="M0 -110L95.3 -55L95.3 55L0 110L-95.3 55L-95.3 -55Z" stroke="#f1911d" fill="none" stroke-width="2"></path></g><g transform="translate(308 123)"><path d="M0 -144L124.7 -72L124.7 72L0 144L-124.7 72L-124.7 -72Z" stroke="#f1911d" fill="none" stroke-width="2"></path></g><g transform="translate(380 493)"><path d="M0 -85L73.6 -42.5L73.6 42.5L0 85L-73.6 42.5L-73.6 -42.5Z" stroke="#f1911d" fill="none" stroke-width="2"></path></g><g transform="translate(18 447)"><path d="M0 -24L20.8 -12L20.8 12L0 24L-20.8 12L-20.8 -12Z" stroke="#f1911d" fill="none" stroke-width="2"></path></g></g></svg>