<svg id="visual" viewBox="0 0 900 675" width="900" height="675" xmlns="http://www.w3.org/2000/svg" xmlns:xlink="http://www.w3.org/1999/xlink" version="1.1"><rect width="900" height="675" fill="#131313"></rect><g><g transform="translate(136 456)"><path d="M0 -162.1L140.4 -81.1L140.4 81.1L0 162.1L-140.4 81.1L-140.4 -81.1Z" fill="none" stroke="#f1911d" stroke-width="2"></path></g><g transform="translate(587 445)"><path d="M0 -97L84 -48.5L84 48.5L0 97L-84 48.5L-84 -48.5Z" stroke="#f1911d" fill="none" stroke-width="2"></path></g><g transform="translate(717 93)"><path d="M0 -41L35.5 -20.5L35.5 20.5L0 41L-35.5 20.5L-35.5 -20.5Z" stroke="#f1911d" fill="none" stroke-width="2"></path></g><g transform="translate(386 163)"><path d="M0 -54L46.8 -27L46.8 27L0 54L-46.8 27L-46.8 -27Z" stroke="#f1911d" fill="none" stroke-width="2"></path></g><g transform="translate(49 135)"><path d="M0 -46L39.8 -23L39.8 23L0 46L-39.8 23L-39.8 -23Z" stroke="#f1911d" fill="none" stroke-width="2"></path></g><g transform="translate(872 657)"><path d="M0 -97L84 -48.5L84 48.5L0 97L-84 48.5L-84 -48.5Z" stroke="#f1911d" fill="none" stroke-width="2"></path></g></g></svg>